# xmcd
#
# Track frame offsets: 
#        150
#        17120
#        31812
#        48078
#        64511
#        83069
#        101738
#        117969
#        132995
#        150055
#        166565
#
# Disc length: 2427 seconds
#
# Revision: 0
# Processed by: cddbd v1.5.2PL0 Copyright (c) Steve Scherf et al.
# Submitted via: ExactAudioCopy v0.99pb3
#
DISCID=7209790b
DTITLE=Twenty Year Town - Ian Newbill
DYEAR=2012
DGENRE=Country
TTITLE0=On Again Off Again Girlfriend
TTITLE1=Beer Run
TTITLE2=Rain
TTITLE3=Does He Love You
TTITLE4=Shine
TTITLE5=Willin and Able
TTITLE6=She Held On
TTITLE7=Barn Dance
TTITLE8=LeAnn
TTITLE9=Hearts of Stone
TTITLE10=Another Man
EXTD=
EXTT0=
EXTT1=
EXTT2=
EXTT3=
EXTT4=
EXTT5=
EXTT6=
EXTT7=
EXTT8=
EXTT9=
EXTT10=
PLAYORDER=
